<?xml version="1.0" encoding="UTF-8" standalone="no"?>
<!-- Created with Inkscape (http://www.inkscape.org/) -->

<svg
   xmlns:dc="http://purl.org/dc/elements/1.1/"
   xmlns:cc="http://creativecommons.org/ns#"
   xmlns:rdf="http://www.w3.org/1999/02/22-rdf-syntax-ns#"
   xmlns:svg="http://www.w3.org/2000/svg"
   xmlns="http://www.w3.org/2000/svg"
   xmlns:sodipodi="http://sodipodi.sourceforge.net/DTD/sodipodi-0.dtd"
   xmlns:inkscape="http://www.inkscape.org/namespaces/inkscape"
   id="svg3347"
   version="1.1"
   inkscape:version="0.91 r13725"
   width="420.24908"
   height="255.73734"
   viewBox="0 0 420.24909 255.73733"
   sodipodi:docname="winsford orange logo with shadow.svg">
  <metadata
     id="metadata3353">
    <rdf:RDF>
      <cc:Work
         rdf:about="">
        <dc:format>image/svg+xml</dc:format>
        <dc:type
           rdf:resource="http://purl.org/dc/dcmitype/StillImage" />
        <dc:title></dc:title>
      </cc:Work>
    </rdf:RDF>
  </metadata>
  <defs
     id="defs3351">
    <filter
       style="color-interpolation-filters:sRGB"
       inkscape:label="Drop Shadow"
       id="filter4511">
      <feFlood
         flood-opacity="0.705882"
         flood-color="rgb(0,0,0)"
         result="flood"
         id="feFlood4513" />
      <feComposite
         in="flood"
         in2="SourceGraphic"
         operator="in"
         result="composite1"
         id="feComposite4515" />
      <feGaussianBlur
         in="composite1"
         stdDeviation="9.9"
         result="blur"
         id="feGaussianBlur4517" />
      <feOffset
         dx="3.4"
         dy="3.1"
         result="offset"
         id="feOffset4519" />
      <feComposite
         in="SourceGraphic"
         in2="offset"
         operator="over"
         result="composite2"
         id="feComposite4521" />
    </filter>
  </defs>
  <sodipodi:namedview
     pagecolor="#ffffff"
     bordercolor="#666666"
     borderopacity="1"
     objecttolerance="10"
     gridtolerance="10"
     guidetolerance="10"
     inkscape:pageopacity="0"
     inkscape:pageshadow="2"
     inkscape:window-width="1162"
     inkscape:window-height="809"
     id="namedview3349"
     showgrid="false"
     inkscape:zoom="1.625741"
     inkscape:cx="254.7355"
     inkscape:cy="133.11538"
     inkscape:window-x="159"
     inkscape:window-y="97"
     inkscape:window-maximized="1"
     inkscape:current-layer="svg3347"
     inkscape:snap-page="true"
     fit-margin-top="0"
     fit-margin-left="0"
     fit-margin-right="0"
     fit-margin-bottom="0" />
  <path
     style="fill:#ff6600;fill-opacity:1;stroke:none;stroke-width:12.60000038;stroke-miterlimit:4;stroke-dasharray:none;filter:url(#filter4511)"
     d="m 125.48868,233.72655 c -2.67854,-0.8791 -5.44926,-2.68239 -6.02471,-5.63932 -2.56979,-7.54811 -1.58698,-15.68396 -0.70263,-23.43441 1.63257,-11.65522 3.29667,-23.32861 6.0306,-34.78663 1.15356,-5.78635 2.51409,-11.55981 3.14531,-17.43061 0.11363,-1.83796 0.36086,-3.67865 0.68566,-5.50416 -2.40553,3.1551 -4.01694,6.83248 -6.12372,10.18493 -7.60954,12.92397 -15.34795,25.7737 -23.398671,38.42836 -6.020631,9.71306 -12.124783,19.45309 -19.58862,28.14093 -3.722584,3.93521 -7.907655,7.83456 -13.153209,9.56238 -3.385681,1.06958 -7.054381,-0.0899 -10.040229,-1.74905 -2.037452,-0.78832 -3.687954,-2.26915 -5.094973,-3.94018 -1.829311,-2.25171 -2.299071,-5.2364 -3.048546,-7.96132 -1.506042,-6.47727 -1.210611,-13.22885 0.02987,-19.72271 2.51399,-14.47269 5.358743,-28.8862 8.216451,-43.2937 1.411055,-8.42782 2.47812,-16.91131 3.638121,-25.37672 1.373088,-12.81805 3.079475,-25.60034 4.33183,-38.43113 0.492836,-7.457408 1.279822,-15.096394 -0.506371,-22.446796 -0.979723,-2.019896 -2.198279,-3.981876 -3.346695,-5.924993 -1.913877,-1.877541 -4.824641,-2.002785 -7.356477,-2.224552 -3.71223,-0.103021 -7.065216,1.926434 -10.084347,3.864444 -1.613843,1.194844 -4.579733,3.373694 -6.041924,0.823044 -0.642289,-1.900708 -2.133405,-3.648553 -2.029473,-5.70628 -0.136275,-2.518152 2.451276,-3.636396 4.171529,-4.874057 14.689138,-9.479762 29.252335,-19.155258 43.988337,-28.561775 2.426331,-1.303076 4.730282,-3.553476 7.702904,-3.14036 2.977791,0.143104 4.598366,3.084799 5.825023,5.417315 2.065189,3.976201 2.488245,8.522626 2.233846,12.929935 -0.4482,11.528389 -2.199353,22.950447 -3.743484,34.36826 -1.678919,15.770722 -5.766298,30.589395 -7.394736,45.213555 -2.687111,12.40712 -4.777456,24.93495 -6.931438,37.44288 -1.450614,6.29355 -2.178301,13.10185 -2.149756,19.07697 0.02103,3.43958 -0.224028,6.9368 0.36938,10.33384 1.550825,1.71682 4.387292,1.00615 5.920534,-0.40585 2.064005,-1.48156 3.593143,-3.51228 5.038292,-5.56439 5.457372,-8.0732 10.945622,-15.23121 15.285792,-23.09335 5.74583,-9.61203 10.92194,-19.5452 16.22613,-29.40261 4.1723,-8.36354 9.10104,-15.73159 12.14386,-23.86283 1.01748,-4.65702 1.22912,-9.449459 1.90467,-14.163299 0.66829,-5.62142 1.35622,-11.241308 2.13384,-16.847021 -0.12981,-6.680194 -0.019,-14.542944 -3.06863,-19.878213 -1.69718,-3.186576 -4.34191,-5.862941 -7.48261,-7.626342 -2.42945,-1.42545 -1.05718,-4.08454 0.97283,-5.024738 7.99416,-5.722815 16.27669,-11.033067 24.47529,-16.45639 2.4828,-1.525248 4.84159,-3.309737 7.4585,-4.58511 4.21362,-0.638309 8.42141,1.994607 10.59758,5.500257 0.79747,2.300529 0.59442,4.831231 0.83791,7.236357 0.34154,5.57913 0.34869,11.171952 -0.072,16.746865 -0.49713,8.613027 -2.13242,17.105716 -3.42081,25.623347 -2.19583,13.088963 -4.16986,26.215177 -6.43354,39.292277 -1.2808,6.11235 -2.62127,12.21445 -3.58366,18.38843 -1.36433,7.77153 -2.90949,15.50825 -4.28115,23.27808 -1.9369,10.2884 -3.95671,20.59136 -4.87876,31.03018 -0.15724,2.30623 0.2312,5.49389 2.94554,6.11374 3.63333,0.77146 6.76356,-1.91616 9.22506,-4.21804 7.93411,-8.0747 13.58206,-18.0199 18.91392,-27.91759 5.28349,-9.89788 10.05122,-20.06466 14.57124,-30.33033 4.21856,-9.73846 7.83057,-19.72311 11.90734,-29.51858 1.61287,-3.698043 2.66526,-6.577192 3.99703,-10.203448 -2.93723,-4.259691 -6.45022,-9.036572 -7.21303,-13.49027 -1.20386,-6.551486 -0.85318,-13.338765 0.93584,-19.749895 1.2053,-4.85384 3.14649,-9.557592 6.01653,-13.664263 3.28178,-6.519545 7.93641,-12.220112 12.65581,-17.741037 2.97529,-3.268855 6.32999,-7.04317 11.01996,-7.467022 3.62803,-0.477801 6.83634,2.403458 8.06266,5.631041 2.94219,6.4053 1.90606,13.614861 0.81782,20.314486 -0.98546,6.616693 -2.77888,13.090472 -5.25641,19.300916 0.5111,4.739736 9.06115,12.459829 12.3796,13.586182 1.85396,0.657123 2.98192,3.138409 1.44403,4.679319 -5.90427,4.025623 -12.23087,7.373818 -18.32649,11.088464 -2.38285,1.537891 -4.67076,3.23738 -7.10764,4.678957 -1.98366,2.62627 -3.07507,5.80936 -4.60434,8.70802 -5.85854,12.10538 -11.74615,24.20255 -17.95417,36.13186 -5.29691,10.01852 -10.59413,20.0402 -16.24793,29.86423 -7.29783,12.80959 -15.18792,25.37917 -24.75148,36.63675 -5.05167,5.56706 -10.28791,11.0124 -16.06664,15.83247 -5.72671,4.49042 -13.35797,8.20558 -20.74713,5.9103 z m 84.4694,-21.18151 c -0.27384,-3.29442 0.68786,-6.55743 1.1631,-9.80006 0.92514,-5.20046 1.56239,-10.4454 2.3747,-15.66341 1.97586,-0.76816 3.86762,-1.90799 5.97869,-2.2038 -0.1862,2.60068 -1.4343,5.01397 -1.93272,7.57039 -0.86212,3.59607 -1.72129,7.26534 -1.60266,10.98705 1.4079,1.92853 3.09105,-1.76244 3.75068,-3.02717 2.00385,-4.09595 2.98135,-8.58575 3.68882,-13.06011 1.5423,-0.79227 3.75478,-2.51795 5.23956,-2.17215 -0.3109,2.49716 -1.16225,4.91719 -1.40928,7.43762 -0.48239,3.61199 -0.81643,7.27695 -0.64348,10.91912 1.52577,0.67339 2.60821,-2.82245 3.59126,-3.99646 1.45215,-2.7733 3.23695,-5.56944 3.54158,-8.74682 0.10611,-1.4795 -2.83936,-1.96637 -0.67115,-3.2199 1.14427,-1.03935 2.32622,-2.03614 3.49096,-3.05232 1.16055,0.67318 2.44155,1.18731 3.45698,2.07209 -3.39279,4.63056 -5.9604,9.80967 -8.99719,14.67811 -2.38212,3.79074 -4.52322,7.79233 -7.47781,11.1786 -2.55244,2.2421 -2.43348,-2.19989 -2.16358,-3.78208 0.18649,-3.1938 0.39562,-6.41147 0.93104,-9.55918 -1.3967,1.01084 -1.83627,3.21934 -2.93027,4.65665 -2.08521,3.33903 -4.25376,6.85259 -7.55413,9.11936 -0.57975,0.38729 -1.61739,0.56935 -1.8251,-0.33553 z m 24.47604,0.26353 c -1.89975,-1.62377 -0.53934,-4.10912 0.0225,-6.02766 2.1412,-6.09114 4.32915,-12.18097 6.64997,-18.1987 1.62282,-1.51663 3.65961,-2.65109 5.78118,-3.29373 0.59787,1.54612 -1.41011,3.96195 -1.92345,5.77781 -2.01042,4.90643 -4.18359,9.79489 -5.48916,14.9467 -0.57107,1.2031 0.19283,3.00315 1.22098,1.18563 0.5488,-0.84739 2.39902,-3.88232 1.86663,-1.1478 -0.0288,2.61375 -2.44851,3.99468 -4.31348,5.34216 -1.14401,0.44692 -2.56245,2.467 -3.81517,1.41559 z m 68.2106,-0.32844 c -4.0067,-3.19943 -6.79226,-8.34775 -6.07258,-13.57305 0.71968,-5.81201 5.30908,-10.10463 9.69607,-13.5046 1.87574,-1.53511 3.95966,-2.79848 5.87324,-4.27021 -0.81916,-1.47259 -4.27641,-1.10525 -6.04845,-1.9044 -2.70874,-0.46081 -5.69568,-1.67945 -8.34821,-0.38827 -0.6598,0.72527 -3.29067,1.57655 -1.79038,-0.0895 2.08099,-1.99976 4.36186,-3.79503 6.45162,-5.77993 1.99063,-0.47943 3.98499,0.64964 5.92396,1.06267 3.13614,0.8245 6.16856,2.26915 9.43831,2.44324 2.68345,-0.30028 4.92905,-2.03617 7.50164,-2.76434 1.40279,-0.81774 4.94907,-1.26861 3.28102,1.32474 -2.13402,3.78351 -6.35615,6.3275 -10.72136,6.32881 -2.04978,-0.0345 -4.18981,0.20372 -5.77132,1.65321 -4.05164,3.01714 -7.95031,6.95377 -8.99197,12.08283 -0.86847,3.22076 -0.47236,6.84938 1.67514,9.50049 1.40112,1.84189 3.41184,3.47867 5.77806,3.72512 1.79682,-1.03225 2.84421,-2.99477 4.10649,-4.58887 1.34247,-1.40139 1.65484,-3.77659 3.42227,-4.67734 3.25046,-0.86441 0.18518,2.53271 -0.51369,3.58952 -2.97604,3.80677 -6.15242,7.78328 -10.57145,9.96773 -1.35541,0.60876 -3.0681,0.83818 -4.31841,-0.13786 z m 18.56436,0.32371 c -2.33178,-1.04024 -2.13293,-3.95698 -2.03662,-6.09135 0.37593,-4.64175 2.40286,-9.01526 4.93499,-12.86057 2.7081,-3.24331 5.82353,-6.51087 9.90215,-7.93806 1.85953,-0.91454 5.08961,0.24705 3.88975,2.72041 -1.29645,2.96167 -3.87718,5.16958 -6.47433,6.98711 -1.75623,1.22518 -3.84145,1.71197 -5.78984,2.45161 -1.13343,2.09707 -1.35981,4.68372 -1.22323,7.05287 -0.20146,2.06873 2.50336,4.92322 4.01882,2.41266 1.40459,-1.57019 1.19741,-5.38109 4.20958,-4.51477 -0.2392,1.81359 -1.79393,3.46874 -2.86134,5.0214 -1.79832,2.11274 -3.80189,4.49033 -6.63673,5.1016 -0.66045,0.0904 -1.34345,-0.0334 -1.9332,-0.34291 z m 8.67764,-17.91164 c 1.37407,-1.26937 3.40841,-3.69833 1.99208,-5.53985 -2.42118,-0.55535 -3.67197,2.59786 -4.58652,4.35196 -1.09376,1.9169 1.62953,1.66687 2.59444,1.18789 z m -141.19625,17.60895 c -1.82268,-0.91949 -4.4227,-2.47133 -3.82295,-4.89367 0.9909,-3.45456 2.87171,-6.62958 5.08552,-9.43928 1.54222,-1.74576 2.32075,0.56898 0.7135,1.41966 -1.1984,1.46772 -2.17839,3.95414 -0.3929,5.38858 2.59507,2.18173 6.28988,2.07427 9.42342,1.42536 2.21592,-0.41352 3.54934,-2.64433 3.3664,-4.80222 0.29611,-2.46153 -1.97292,-3.93807 -3.82746,-4.98379 -2.35231,-1.48642 -5.13861,-2.58903 -6.87206,-4.84664 -1.99413,-3.40926 -0.40244,-7.55001 1.55854,-10.5856 2.6927,-3.89423 6.42535,-7.68831 11.28685,-8.49051 3.29375,-0.52364 7.19153,1.31115 8.0992,4.67524 -0.008,2.0842 -1.52237,3.80328 -2.58562,5.48893 -1.21418,1.12465 -2.36139,4.5134 -4.33442,3.21429 0.73837,-1.60249 2.87932,-3.36025 1.74857,-5.40987 -1.88679,-2.65412 -5.75956,-2.91045 -8.59512,-1.80817 -3.10687,0.64298 -4.85328,4.57022 -3.35327,7.3178 2.47926,3.53186 7.26635,4.37641 9.9158,7.72897 1.98958,3.12418 0.71704,7.15699 -1.01279,10.0921 -2.44546,3.28913 -5.48194,6.35529 -9.24797,8.08727 -2.22724,0.97093 -4.81611,0.83127 -7.15324,0.42155 z m 143.97491,0.056 c -1.41058,-1.74772 -0.62999,-4.29179 -0.35537,-6.32734 1.3213,-6.01789 4.53781,-11.53362 8.65528,-16.06899 2.25727,-2.31768 5.19484,-4.01647 8.31245,-4.85528 1.3807,-0.13313 2.23379,1.11657 3.13137,1.95487 0.88975,-0.55205 3.13695,-1.77223 2.09752,0.29223 -1.70736,4.50849 -3.97644,8.79098 -5.41364,13.40734 -0.3384,2.08098 -2.47924,4.84317 -0.8255,6.65476 0.8515,-0.0858 3.03665,-2.70316 2.19389,-0.25008 -1.76256,2.2849 -4.01639,4.60734 -6.92562,5.27286 -2.55683,-0.12957 -1.57509,-3.54355 -1.18667,-5.21503 0.257,-1.25736 1.38491,-3.2799 1.32584,-4.03802 -2.45073,3.21167 -4.98994,6.51678 -8.39355,8.77417 -0.76184,0.43699 -1.76996,0.89046 -2.616,0.39851 z m 7.23712,-6.40601 c 3.29071,-3.42495 5.34592,-7.81222 7.3902,-12.0491 0.4445,-1.52723 2.4555,-3.26719 0.27374,-4.05184 -1.03802,-2.69291 -3.75128,-1.04096 -4.48106,0.93067 -2.39686,4.22468 -4.57493,8.73054 -5.33327,13.56779 -0.28038,1.67317 0.49586,3.63621 2.15039,1.60248 z m -87.08895,6.27195 c 1.23189,-4.36374 2.75807,-8.64715 3.91586,-13.02914 1.34821,-1.64324 1.6997,-3.90094 2.56113,-5.82361 0.79776,-1.91125 -1.07822,-1.44174 -1.52714,-0.0847 -3.34721,4.75032 -5.91922,9.98232 -8.24935,15.2891 -0.71756,2.29191 -3.30142,2.56369 -5.23246,3.26679 -2.73399,1.07101 -0.29248,-2.39321 -0.20314,-3.61225 2.05572,-6.43796 4.61688,-12.7672 5.7783,-19.44878 -0.57223,-2.65054 2.48653,-3.1357 4.3003,-3.91209 3.07664,-1.03165 1.11907,3.05671 0.77802,4.49404 -1.15988,4.04763 -2.83869,7.93779 -3.92688,11.99923 2.07749,-3.05966 3.65039,-6.45265 5.74582,-9.51321 1.40299,-1.86313 2.2821,-4.37511 4.56003,-5.35957 1.59358,-0.51523 3.88009,-2.65251 5.23654,-1.3743 -0.0816,2.74377 -1.45824,5.25807 -2.33308,7.8201 -1.33847,3.65998 -2.90361,7.26381 -3.87354,11.04196 1.03938,-1.25654 2.09454,-3.31509 3.19362,-4.8497 2.68228,-3.93004 5.11543,-8.05801 8.15158,-11.72884 1.4803,-1.3524 3.36343,-2.78798 5.40402,-2.84858 0.78377,1.93937 -0.84437,4.2657 -1.2597,6.28049 -1.6924,4.90909 -4.07504,9.64936 -4.91836,14.80793 -0.12505,1.5407 3.61398,0.49213 1.50612,2.22945 -2.02283,1.57655 -4.04747,3.34858 -6.52965,4.1381 -2.63229,0.12866 -1.36004,-3.57751 -0.78431,-5.01751 1.70841,-4.75859 4.18596,-9.24942 5.46668,-14.15233 -0.69702,-1.21416 -2.33183,2.2906 -3.08834,3.05007 -3.14544,4.6679 -6.04651,9.49559 -8.81355,14.39592 -1.93427,0.67186 -3.80752,1.64194 -5.81779,2.00561 l -0.0407,-0.0641 0,0 z m 97.572,-0.27793 c 2.30166,-7.57976 5.66194,-14.85445 7.2307,-22.64875 0.20318,-0.7834 0.0754,-1.79602 0.42485,-2.46038 1.70153,-0.6592 3.31892,-1.64083 5.14155,-1.90442 1.68149,1.29366 -0.63553,4.02247 -0.829,5.79062 -1.26204,3.73921 -2.84284,7.37149 -4.02497,11.13302 1.05753,-1.06237 2.06972,-3.19191 3.05278,-4.70657 2.08039,-3.30427 4.04351,-6.75262 6.73404,-9.60573 1.75974,-1.25591 3.8334,-2.14703 5.92331,-2.67499 1.5537,1.08757 -0.65968,3.75516 -0.94902,5.34726 -1.80655,4.7484 -4.26671,9.26245 -5.62599,14.1702 2.81562,-3.33013 4.99002,-7.19132 7.54583,-10.73427 2.40065,-3.30942 4.66087,-7.27005 8.82727,-8.54243 2.75329,-0.51303 0.62987,2.95125 0.28587,4.29281 -1.89901,5.18983 -4.36738,10.19169 -5.77623,15.54856 -1.16921,2.23803 3.29704,0.90522 1.69154,2.71594 -2.19329,1.68487 -4.50482,3.34437 -7.0754,4.38089 -2.51822,-0.84028 -0.74556,-4.15279 -0.12791,-5.83889 1.70924,-4.28881 3.96041,-8.37598 5.26446,-12.81683 -0.37863,-1.74232 -2.39203,1.94224 -3.18537,2.75189 -3.31141,4.49486 -6.20111,9.27711 -8.96545,14.12195 -1.84131,0.60376 -3.62406,1.59571 -5.56353,1.73909 1.66373,-6.49123 4.92294,-12.45386 6.7343,-18.89928 -0.11925,-2.19918 -2.36555,1.20438 -2.84607,1.9361 -3.17107,4.69588 -5.67297,9.79848 -8.09192,14.90618 -1.48854,1.1939 -3.71357,1.5322 -5.49854,2.35185 -0.19914,0.11056 -0.43622,-0.1412 -0.2971,-0.35382 z m -106.9601,-31.57367 c -1.32183,-1.05768 1.09129,-2.54773 1.82455,-3.55075 0.53576,-0.46588 0.91788,-1.4049 1.75414,-0.94547 1.3255,0.29106 2.74096,0.34996 3.95686,0.99083 0.25877,1.91839 -2.31727,3.51884 -4.15479,3.60678 -1.12107,0.11222 -2.27539,0.15254 -3.38076,-0.10139 z m 29.42244,-0.44906 c -1.24351,-2.12229 -0.8026,-4.80796 -0.32476,-7.10513 -0.0505,-1.34415 2.51116,-4.31265 2.00201,-1.34995 -0.49491,1.37825 0.93393,4.7991 2.01851,2.18123 2.60515,-5.60746 4.14262,-11.63483 5.93169,-17.53515 0.97496,-3.37171 1.87115,-6.76593 2.66695,-10.18443 -1.07787,0.12185 -3.50012,0.0106 -2.0155,-1.51954 1.82615,-1.72246 3.65453,-3.67487 4.0846,-6.25176 1.50957,-4.73535 2.84392,-9.59987 5.25697,-13.97201 2.46579,-4.04807 5.7453,-7.95488 10.20454,-9.83869 2.4158,-0.76288 3.72955,2.17189 2.8555,4.10262 -0.59473,2.06803 -1.52382,4.22018 -3.09507,5.7112 -1.32026,-0.32223 -1.77341,-4.66583 -3.91168,-3.15832 -1.8567,3.87953 -2.88198,8.1035 -4.2143,12.18164 -0.80668,2.76789 -1.67474,5.52233 -2.33662,8.32891 1.88159,0.6019 4.18947,-0.54826 5.88768,0.47772 -0.75758,1.67725 -2.19338,3.7291 -4.27376,3.74571 -0.8599,0.13279 -2.01022,-0.14917 -2.72299,0.15109 -2.13328,8.32567 -4.50319,16.62986 -7.85339,24.55688 -1.93388,3.79534 -4.23346,7.79869 -8.05926,9.9485 -0.72702,0.36328 -1.59465,0.16789 -2.10112,-0.47052 z m 48.67195,-13.82248 c -1.38012,-1.77662 0.009,-4.13958 0.44985,-6.04249 2.18117,-6.61935 5.13516,-13.00049 6.72634,-19.80474 0.98013,-2.11858 -0.6901,-3.88815 -1.3126,-5.4979 1.84882,-1.57967 4.07626,-2.70114 6.29192,-3.67727 2.78756,-0.48256 1.58022,3.60384 1.50738,5.23623 -0.0997,0.94537 -1.01392,4.83444 0.35021,2.3813 1.5486,-2.89151 3.30321,-5.8196 5.86869,-7.91647 1.91766,-1.58526 4.68275,0.36795 4.13949,2.73183 -0.35236,3.34086 -2.01102,6.40017 -3.74401,9.2189 -1.79379,1.89528 -1.10736,-1.39433 -0.81221,-2.45412 0.36229,-3.01733 -3.33359,-2.26277 -4.22351,-0.27659 -3.58319,4.76965 -5.46623,10.54342 -7.25625,16.16498 -0.94434,1.60148 -0.51156,5.27898 1.93042,3.25528 2.54764,-1.34205 0.43955,2.43245 -0.81773,2.83576 -2.33832,1.8635 -4.8551,3.77864 -7.8063,4.48589 -0.5141,0.0332 -0.9423,-0.30965 -1.29169,-0.64059 z m -110.92719,-0.41729 c -1.55122,-1.7737 -0.42305,-4.25849 0.0342,-6.25549 2.73301,-8.67833 6.26642,-17.07777 9.15144,-25.70554 0.21031,-0.72768 1.22332,-0.74798 1.77493,-1.17489 2.04143,-0.95397 3.99481,-2.19194 6.19538,-2.72759 0.19408,1.69496 -1.16205,3.67828 -1.73849,5.41912 -3.15273,7.30305 -6.22189,14.68398 -8.30714,22.37193 -1.0319,2.21482 1.2748,2.55926 2.15416,0.76198 0.68654,-0.66448 2.4212,-4.50539 2.10589,-1.55117 -0.14715,2.17456 -1.06111,4.26201 -3.03383,5.36174 -2.3127,1.64576 -4.60741,3.5963 -7.41405,4.28773 -0.35178,-0.20724 -0.62947,-0.50995 -0.92253,-0.78782 z m 89.56258,0.55172 c -3.06348,-0.75731 -3.915,-4.36616 -3.85435,-7.11223 0.037,-7.81652 3.97125,-14.96924 8.70562,-20.94858 2.58358,-3.2199 5.41296,-6.34138 8.80475,-8.72418 2.67401,-0.72555 -0.43437,2.31372 -1.12173,2.97462 -4.22027,4.88712 -7.38896,10.77533 -8.87713,17.07361 -0.39786,2.56968 -0.80885,5.39039 0.28771,7.83827 1.08685,2.37828 5.07179,2.95932 6.38109,0.50281 2.6381,-4.52989 4.18304,-9.62611 5.37199,-14.70561 0.38316,-2.16841 0.92751,-4.57551 -0.0414,-6.66071 -0.57324,-1.42739 -4.33969,0.26357 -2.32648,-1.89993 2.1779,-2.17545 4.60691,-4.10043 7.0773,-5.92948 1.96231,0.58079 2.60818,3.00569 2.56785,4.85947 0.41432,9.20267 -4.2826,17.84925 -10.37705,24.4386 -3.02204,3.07924 -6.07135,6.47142 -10.15942,8.1148 -0.77972,0.25816 -1.63068,0.38162 -2.43873,0.17854 z m 55.25496,-0.35085 c -1.05648,-2.19301 -0.13344,-4.76314 0.27459,-7.02611 0.541,-2.52379 1.67073,-4.87988 2.29328,-7.36863 -4.0275,4.55796 -7.24546,10.02613 -12.42667,13.4322 -1.5814,1.28791 -5.12863,1.87412 -5.44547,-0.91045 -0.61806,-5.92984 1.77832,-11.65312 4.31528,-16.87388 2.26788,-4.69744 5.57117,-8.85059 9.62662,-12.12867 2.61624,-2.07016 5.44467,-4.28848 8.84136,-4.76083 1.4224,-0.18132 3.0911,2.48811 3.11346,-0.20198 1.07005,-3.85266 2.20726,-7.6905 3.4861,-11.47921 1.4435,-1.32437 3.63434,-1.35918 5.30928,-2.34869 0.9467,-0.50378 3.29496,-1.80453 2.10942,0.29119 -2.10605,5.4229 -4.09314,10.89024 -6.17118,16.32513 -2.73379,7.59798 -5.58432,15.18698 -7.5157,23.0374 -0.73282,1.53316 -0.11916,4.59548 1.98823,2.87096 2.5526,-0.91672 0.0749,2.65512 -0.9378,3.09769 -2.21471,1.87652 -4.57715,3.83447 -7.42358,4.6104 -0.53274,0.0877 -1.07205,-0.19752 -1.43722,-0.56652 z m -3.91306,-9.12211 c 4.59856,-4.88621 7.53425,-10.99599 10.56838,-16.90539 0.56322,-0.86676 1.21855,-2.62403 -0.44072,-1.51409 -1.39613,-0.89444 -2.62426,-4.70491 -4.78694,-2.98935 -4.36838,5.31228 -6.96177,11.85957 -8.75379,18.43711 -0.53256,1.55828 -1.31703,5.95385 1.57293,4.59731 0.68486,-0.45354 1.26726,-1.04193 1.84014,-1.62559 z m -93.62924,8.42024 c -1.4096,-1.00079 -3.18934,-2.66931 -2.83037,-4.54293 1.48652,-3.25602 3.9627,-5.9711 6.46411,-8.48514 2.36107,-0.44349 -0.1877,2.37283 -0.23715,3.5176 -0.33361,2.44008 2.56125,3.61081 4.57648,3.54135 2.1757,0.0594 5.15937,-1.26477 5.1878,-3.69341 -2.0759,-3.66332 -6.52359,-5.06428 -8.91846,-8.45823 -1.72915,-2.76226 -0.7195,-6.30545 1.23515,-8.66148 2.74126,-3.33948 5.95241,-6.68616 10.15625,-8.07662 2.92984,-0.96204 6.8675,0.42948 7.75143,3.54791 -0.44255,2.21835 -2.1362,4.03404 -3.17697,6.02671 -0.4982,1.01444 -2.71544,4.63427 -2.75416,1.74139 1.26808,-2.14986 -0.0857,-4.86371 -2.36807,-5.57604 -2.42608,-1.02414 -5.83722,-0.10049 -6.80661,2.49523 -0.41106,2.40876 2.05916,3.83278 3.60236,5.2156 2.12332,1.80942 4.81765,3.37821 5.80699,6.12406 0.57315,3.05302 -1.65059,5.66425 -3.30404,7.99704 -2.24207,2.74229 -4.57106,5.64874 -7.77833,7.28751 -2.08059,0.6929 -4.5572,0.89373 -6.60641,-5.5e-4 z m -33.61,-0.19833 c 2.78849,-9.70268 6.80922,-19.04512 8.97737,-28.93204 0.39338,-1.66003 0.78437,-3.32062 1.17664,-4.98091 2.45147,-0.71078 4.84494,-1.7616 7.39848,-2.00938 1.00041,1.7132 -0.50517,3.93975 -0.8767,5.74324 -1.98588,5.79081 -4.52653,11.39155 -6.2955,17.25302 0.94034,-0.52856 1.9448,-3.25901 3.04659,-4.52716 3.47757,-4.97026 6.97701,-9.9984 11.28356,-14.2952 2.22245,-1.82919 4.9352,-3.01918 7.64355,-3.93464 3.15638,-0.7142 1.44458,3.26868 0.70871,4.72045 -3.05768,7.31937 -7.07447,14.36589 -8.59611,22.22569 -0.60693,1.86032 0.98572,2.9481 2.64495,2.3767 0.44055,2.17364 -2.83266,2.77538 -4.18039,3.95567 -1.93066,0.93913 -3.81813,2.63001 -6.07086,2.47757 -2.25096,-1.38925 -1.0476,-4.36813 -0.43513,-6.35956 1.93489,-6.08241 4.92223,-11.73724 7.34636,-17.62156 1.03655,-1.51783 -0.2682,-3.01611 -1.54192,-1.33553 -4.38763,3.83072 -7.36224,8.96255 -10.30581,13.91536 -1.91216,3.32794 -3.56975,6.79203 -5.36472,10.18263 -2.03616,0.63618 -4.11579,1.14719 -6.19416,1.62281 -0.27413,0.0669 -0.41253,-0.26699 -0.36491,-0.47716 z m -0.10923,-40.91584 c -1.92788,-0.1081 -3.27274,-1.42447 -1.23038,-2.70694 1.47647,-1.23186 2.47531,-3.78627 4.72086,-3.54834 1.6834,0.59092 5.22328,-0.0964 5.4467,1.9572 -1.60815,3.18895 -5.4511,5.00398 -8.93718,4.29808 z"
     id="path3357"
     inkscape:connector-curvature="0"
     sodipodi:nodetypes="cccccccccccccccccccccccccccccccccccccccccccccccccccccccccccccccccccccccccccccccccccccccccccccccccccccccccccccccccccccccccccccccccccccccccccccccccccccccccccccccccccccccccccccccccccccccccccccccccccccccccccccccccccccccccccccccccccccccccccccccccccccccccccccccccccccccccccccccccccccccccccccccccccccccccccccccccccccccccccccccccccccccccccccccccccccccccccccccccccccccccccccccccccccccccccccccccccccccccc" />
</svg>
