<?xml version="1.0" encoding="UTF-8" standalone="no"?>
<!-- Created with Inkscape (http://www.inkscape.org/) -->

<svg
   xmlns:dc="http://purl.org/dc/elements/1.1/"
   xmlns:cc="http://creativecommons.org/ns#"
   xmlns:rdf="http://www.w3.org/1999/02/22-rdf-syntax-ns#"
   xmlns:svg="http://www.w3.org/2000/svg"
   xmlns="http://www.w3.org/2000/svg"
   xmlns:sodipodi="http://sodipodi.sourceforge.net/DTD/sodipodi-0.dtd"
   xmlns:inkscape="http://www.inkscape.org/namespaces/inkscape"
   id="svg3347"
   version="1.1"
   inkscape:version="0.91 r13725"
   width="276.99512"
   height="273.11444"
   viewBox="0 0 276.99512 273.11444"
   sodipodi:docname="winsford_logo.svg">
  <metadata
     id="metadata3353">
    <rdf:RDF>
      <cc:Work
         rdf:about="">
        <dc:format>image/svg+xml</dc:format>
        <dc:type
           rdf:resource="http://purl.org/dc/dcmitype/StillImage" />
        <dc:title></dc:title>
      </cc:Work>
    </rdf:RDF>
  </metadata>
  <defs
     id="defs3351" />
  <sodipodi:namedview
     pagecolor="#ffffff"
     bordercolor="#666666"
     borderopacity="1"
     objecttolerance="10"
     gridtolerance="10"
     guidetolerance="10"
     inkscape:pageopacity="0"
     inkscape:pageshadow="2"
     inkscape:window-width="1600"
     inkscape:window-height="1138"
     id="namedview3349"
     showgrid="false"
     inkscape:zoom="1.625741"
     inkscape:cx="158.98689"
     inkscape:cy="141.80392"
     inkscape:window-x="-8"
     inkscape:window-y="-8"
     inkscape:window-maximized="1"
     inkscape:current-layer="svg3347"
     inkscape:snap-page="true"
     fit-margin-top="30"
     fit-margin-left="30"
     fit-margin-right="30"
     fit-margin-bottom="30" />
  <path
     style="fill:#ffe4d1;fill-opacity:1;stroke:none;stroke-width:12.60000038;stroke-miterlimit:4;stroke-dasharray:none"
     d="m 120.46792,242.41511 c -2.67854,-0.8791 -5.44926,-2.68239 -6.02471,-5.63932 -2.56979,-7.54811 -1.58698,-15.68396 -0.70263,-23.43441 1.63257,-11.65522 3.29667,-23.32861 6.0306,-34.78663 1.15356,-5.78635 2.51409,-11.55981 3.14531,-17.43061 0.11363,-1.83796 0.36086,-3.67865 0.68566,-5.50416 -2.40553,3.1551 -4.01694,6.83248 -6.12372,10.18493 -7.60954,12.92397 -15.34795,25.7737 -23.398667,38.42836 -6.020631,9.71306 -12.124783,19.45309 -19.58862,28.14093 -3.722584,3.93521 -7.907655,7.83456 -13.153209,9.56238 -3.385681,1.06958 -7.054381,-0.0899 -10.040229,-1.74905 -2.037452,-0.78832 -3.687954,-2.26915 -5.094973,-3.94018 -1.829311,-2.25171 -2.299071,-5.2364 -3.048546,-7.96132 -1.506042,-6.47727 -1.210611,-13.22885 0.02987,-19.72271 2.51399,-14.47269 5.358743,-28.8862 8.216451,-43.2937 1.411055,-8.42782 2.47812,-16.91131 3.638121,-25.37672 1.373088,-12.81805 3.079475,-25.60034 4.33183,-38.43113 0.492836,-7.457411 1.279822,-15.096397 -0.506371,-22.446799 -0.979723,-2.019896 -2.198279,-3.981876 -3.346695,-5.924993 -1.913877,-1.877541 -4.824641,-2.002785 -7.356477,-2.224552 -3.71223,-0.103021 -7.065216,1.926434 -10.084347,3.864444 -1.613843,1.194844 -4.579733,3.373694 -6.041924,0.823044 -0.642289,-1.900708 -2.133405,-3.648553 -2.029473,-5.70628 -0.136275,-2.518152 2.451276,-3.636396 4.171529,-4.874057 14.689138,-9.479762 29.252335,-19.155258 43.988337,-28.561775 2.426331,-1.303076 4.730282,-3.553476 7.702904,-3.14036 2.977791,0.143104 4.598366,3.084799 5.825023,5.417315 2.065189,3.976201 2.488245,8.522626 2.233846,12.929935 -0.4482,11.528389 -2.199353,22.950447 -3.743484,34.36826 -1.678919,15.770718 -5.766298,30.589398 -7.394736,45.213558 -2.687111,12.40712 -4.777456,24.93495 -6.931438,37.44288 -1.450614,6.29355 -2.178301,13.10185 -2.149756,19.07697 0.02103,3.43958 -0.224028,6.9368 0.36938,10.33384 1.550825,1.71682 4.387292,1.00615 5.920534,-0.40585 2.064005,-1.48156 3.593143,-3.51228 5.038292,-5.56439 5.457372,-8.0732 10.945622,-15.23121 15.285788,-23.09335 5.74583,-9.61203 10.92194,-19.5452 16.22613,-29.40261 4.1723,-8.36354 9.10104,-15.73159 12.14386,-23.86283 1.01748,-4.65702 1.22912,-9.44946 1.90467,-14.1633 0.66829,-5.621422 1.35622,-11.24131 2.13384,-16.847023 -0.12981,-6.680194 -0.019,-14.542944 -3.06863,-19.878213 -1.69718,-3.186576 -4.34191,-5.862941 -7.48261,-7.626342 -2.42945,-1.42545 -1.05718,-4.08454 0.97283,-5.024738 7.99416,-5.722815 16.27669,-11.033067 24.47529,-16.45639 2.4828,-1.525248 4.84159,-3.309737 7.4585,-4.58511 4.21362,-0.638309 8.42141,1.994607 10.59758,5.500257 0.79747,2.300529 0.59442,4.831231 0.83791,7.236357 0.34154,5.57913 0.34869,11.171952 -0.072,16.746865 -0.49713,8.613027 -2.13242,17.105716 -3.42081,25.623347 -2.19583,13.088963 -4.16986,26.21518 -6.43354,39.29228 -1.2808,6.11235 -2.62127,12.21445 -3.58366,18.38843 -1.36433,7.77153 -2.90949,15.50825 -4.28115,23.27808 -1.9369,10.2884 -3.95671,20.59136 -4.87876,31.03018 -0.15724,2.30623 0.2312,5.49389 2.94554,6.11374 3.63333,0.77146 6.76356,-1.91616 9.22506,-4.21804 7.93411,-8.0747 13.58206,-18.0199 18.91392,-27.91759 5.28349,-9.89788 10.05122,-20.06466 14.57124,-30.33033 4.21856,-9.73846 7.83057,-19.72311 11.90734,-29.51858 1.61287,-3.69805 2.66526,-6.5772 3.99703,-10.20345 -2.93723,-4.259692 -6.45022,-9.036573 -7.21303,-13.490271 -1.20386,-6.551486 -0.85318,-13.338765 0.93584,-19.749895 1.2053,-4.85384 3.14649,-9.557592 6.01653,-13.664263 3.28178,-6.519545 7.93641,-12.220112 12.65581,-17.741037 2.97529,-3.268855 6.32999,-7.04317 11.01996,-7.467022 3.62803,-0.477801 6.83634,2.403458 8.06266,5.631041 2.94219,6.4053 1.90606,13.614861 0.81782,20.314486 -0.98546,6.616693 -2.77888,13.090472 -5.25641,19.300916 0.5111,4.739736 9.06115,12.459829 12.3796,13.586182 1.85396,0.657123 2.98192,3.138409 1.44403,4.679319 -5.90427,4.025623 -12.23087,7.373814 -18.32649,11.088464 -2.38285,1.53789 -4.67076,3.23738 -7.10764,4.67896 -1.98366,2.62627 -3.07507,5.80936 -4.60434,8.70802 -5.85854,12.10538 -11.74615,24.20255 -17.95417,36.13186 -5.29691,10.01852 -10.59413,20.0402 -16.24793,29.86423 -7.29783,12.80959 -15.18792,25.37917 -24.75148,36.63675 -5.05167,5.56706 -10.28791,11.0124 -16.06664,15.83247 -5.72671,4.49042 -13.35797,8.20558 -20.74713,5.9103 z"
     id="path3357"
     inkscape:connector-curvature="0"
     sodipodi:nodetypes="cccccccccccccccccccccccccccccccccccccccccccccccccccccccccccccccccccccccccccccc" />
</svg>
